<svg t="1548993725873" class="icon" viewBox="0 0 1024 1024" version="1.1" xmlns="http://www.w3.org/2000/svg" p-id="13164" height="200" width="200"><path d="M981.333333 460.8l-418.133333 0L563.2 42.666667c0-25.6-17.066667-42.666667-42.666667-42.666667l-17.066667 0c-25.6 0-42.666667 17.066667-42.666667 42.666667l0 418.133333L42.666667 460.8c-25.6 0-42.666667 17.066667-42.666667 42.666667l0 17.066667c0 25.6 17.066667 42.666667 42.666667 42.666667l418.133333 0L460.8 981.333333c0 25.6 17.066667 42.666667 42.666667 42.666667l17.066667 0c25.6 0 42.666667-17.066667 42.666667-42.666667l0-418.133333L981.333333 563.2c25.6 0 42.666667-17.066667 42.666667-42.666667l0-17.066667C1024 477.866667 1006.933333 460.8 981.333333 460.8z" p-id="13165" fill="#bfbfbf"></path></svg>