<svg t="1549873451421" class="icon" viewBox="0 0 1024 1024" version="1.1" xmlns="http://www.w3.org/2000/svg" p-id="2066" height="200" width="200"><path d="M929.344 861.248c0 14.784-12.992 26.88-28.864 26.88L106.624 888.128c-15.872 0-28.8-12.032-28.8-26.88L77.824 250.176c0-14.848 12.928-26.88 28.8-26.88l186.496 0L293.12 182.272 106.624 182.272c-38.528 0-69.824 30.4-69.824 67.904l0 611.072c0 37.504 31.296 67.904 69.824 67.904L900.48 929.152c38.656 0 69.888-30.4 69.888-67.904L970.368 650.88l-41.024 0L929.344 861.248zM449.664 724.48c-1.28-6.912-25.536-171.776 82.56-326.592 85.824-122.944 232-202.88 434.304-237.696l7.616 44.096c-189.824 32.64-326.016 106.176-404.8 218.624-97.536 139.136-74.752 299.456-74.56 300.992L449.664 724.48zM848.32 432.832 810.496 408.896 955.52 179.584 705.6 44.352 726.912 4.992 1019.008 163.008Z" p-id="2067" fill="#2c2c2c"></path></svg>