<svg t="1549873551355" class="icon" viewBox="0 0 1024 1024" version="1.1" xmlns="http://www.w3.org/2000/svg" p-id="5772" height="200" width="200"><path d="M927.6 341.4l-53.2 0 0 452c0 58.7-47.6 106.3-106.3 106.3L289.6 899.7c-58.7 0-106.3-47.6-106.3-106.3l0-452-53.2 0 0 504.3c0 58.7 47.6 106.3 106.3 106.3l584.9 0c58.7 0 106.3-47.6 106.3-106.3L927.6 341.4 927.6 341.4zM794.7 235.1l0-52.8c0-58.7-47.6-106.3-106.3-106.3L365.6 76c-58.7 0-102.5 47.6-102.5 106.3l0 52.8L78.6 235.1l0 53.2L263 288.3l531.7 0 184.4 0 0-53.2L794.7 235.1zM316.2 235.1l0-52.8c0-30.3 21.2-53.2 49.4-53.2l322.8 0c29.3 0 53.2 23.9 53.2 53.2l0 52.8L316.2 235.1zM376.8 362.8l53.2 0 0 463.6-53.2 0 0-463.6ZM627.7 362.8l53.2 0 0 463.6-53.2 0 0-463.6Z" p-id="5773"></path></svg>