 <svg class="icon" viewBox="0 0 1024 1024" version="1.1" xmlns="http://www.w3.org/2000/svg" p-id="19613" height="128" width="128"><path d="M914.510769 938.035503c-24.021586 0-58.683077-15.959858-58.683077-39.979929 0-24.021586 7.083172-45.910343 31.103243-45.910343 12.012308 0 27.57832-8.664615 27.578319-20.676923V135.68c0-22.915787-21.696379-34.794793-33.707171-34.794793H194.697846c-12.010793 0-24.121562 10.155172-24.121562 22.165965 0 24.020071-19.059124 41.097846-43.08071 41.097846-24.020071 0-41.531077-30.636686-41.531077-54.656758C85.964497 49.438296 134.645396 0.757396 194.696331 0.757396h719.814438c60.050935 0 108.731834 48.680899 108.731835 108.731835v719.814438a108.731834 108.731834 0 0 1-108.731835 108.731834z" fill="#000000" p-id="19614"></path><path d="M678.657515 1023.242604H89.721183C40.587361 1023.242604 0.757396 983.412639 0.757396 934.278817V345.342485c0-49.133822 39.829964-88.963787 88.963787-88.963787h588.936332a88.963787 88.963787 0 0 1 88.963787 88.963787v588.936332c0 49.133822-39.829964 88.963787-88.963787 88.963787zM126.53974 352.304473c-22.222012 0-29.249136 6.336379-29.249136 26.075645v503.267219c-1.778367 23.73832 2.508497 39.395219 22.864284 39.395219h507.013301c19.137893 0 38.253065-12.524308 38.253065-31.265325V378.380118c0-9.385657-16.155266-26.075645-25.539408-26.075645H126.53974z" fill="#000000" p-id="19615"></path><path d="M384.189349 852.828402c-23.529278 0-42.60355-17.826083-42.60355-39.816331v-346.40284c0-21.990249 19.074272-39.816331 42.60355-39.816332s42.60355 17.826083 42.60355 39.816332v346.40284c0 21.990249-19.074272 39.816331-42.60355 39.816331z" fill="#000000" p-id="19616"></path><path d="M557.390769 682.414201h-346.40284c-21.990249 0-39.816331-19.074272-39.816331-42.60355s17.826083-42.60355 39.816331-42.60355h346.40284c21.990249 0 39.816331 19.074272 39.816332 42.60355S579.381018 682.414201 557.390769 682.414201z" fill="#000000" p-id="19617"></path></svg>