<?xml version="1.0" encoding="utf-8"?>
<svg version="1.1" xmlns:xlink="http://www.w3.org/1999/xlink" width="90px" height="90px" xmlns="http://www.w3.org/2000/svg">
  <g transform="matrix(1 0 0 1 -4575 -173 )">
    <path d="M 4575 173  L 4665 173  L 4665 263  L 4575 263  L 4575 173  " fill-rule="nonzero" fill="#cccccc" stroke="none" />
    <path d="M 4581 179  L 4659 179  L 4659 257  L 4581 257  L 4581 179  " fill-rule="nonzero" fill="#ffffff" stroke="none" />
    <path d="M 4628.55 200  C 4624.77 200  4621.8 197.03  4621.8 193.25  C 4621.8 189.47  4624.77 186.5  4628.55 186.5  C 4632.33 186.5  4635.3 189.47  4635.3 193.25  C 4635.3 197.03  4632.33 200  4628.55 200  " fill-rule="nonzero" fill="#cccccc" stroke="none" />
    <path d="M 4584 255  L 4584 214.85  L 4602.25 196.6  L 4627.8 211.2  L 4642.4 207.55  L 4657 211.2  L 4657 255  L 4584 255  " fill-rule="nonzero" fill="#169bd5" stroke="none" />
  </g>
</svg>