<?xml version="1.0" encoding="utf-8"?>
<svg version="1.1" xmlns:xlink="http://www.w3.org/1999/xlink" width="90px" height="90px" xmlns="http://www.w3.org/2000/svg">
  <g transform="matrix(1 0 0 1 -4600 -306 )">
    <path d="M 4600 306  L 4690 306  L 4690 396  L 4600 396  L 4600 306  " fill-rule="nonzero" fill="#cccccc" stroke="none" />
    <path d="M 4606 312  L 4684 312  L 4684 390  L 4606 390  L 4606 312  " fill-rule="nonzero" fill="#ffffff" stroke="none" />
    <path d="M 4653.55 333  C 4649.77 333  4646.8 330.03  4646.8 326.25  C 4646.8 322.47  4649.77 319.5  4653.55 319.5  C 4657.33 319.5  4660.3 322.47  4660.3 326.25  C 4660.3 330.03  4657.33 333  4653.55 333  " fill-rule="nonzero" fill="#cccccc" stroke="none" />
    <path d="M 4609 388  L 4609 347.85  L 4627.25 329.6  L 4652.8 344.2  L 4667.4 340.55  L 4682 344.2  L 4682 388  L 4609 388  " fill-rule="nonzero" fill="#169bd5" stroke="none" />
  </g>
</svg>