<svg t="1549875875935" class="icon" viewBox="0 0 1024 1024" version="1.1" xmlns="http://www.w3.org/2000/svg" p-id="6533" height="200" width="200"><path d="M745.614154 512.130983c0-6.421246-2.483564-12.249999-6.51846-16.627702l0.106424-0.143263L315.32106 71.475891c-0.426719-0.466628-0.87288-0.912789-1.339508-1.339508l-0.272199-0.271176 0 0.023536c-3.716648-3.28072-8.584516-5.288446-13.932314-5.288446-11.644201 0-21.082154 9.437953-21.082154 21.081131 0 6.819313 3.251044 12.863982 8.272407 16.717753l-0.189312 0.146333L679.264003 495.02949c0.110517 0.12382 13.900591 15.418154 0.292666 33.514301L286.219255 921.881205l0.031722 0.021489c-4.79419 3.865028-7.867178 9.777691-7.867178 16.412808 0 11.644201 9.438976 21.084201 21.082154 21.084201 6.435573 0 12.187577-2.891863 16.054651-7.439436-0.001023 0.071631 0.005117 0.151449 0.004093 0.224104l420.934958-420.934958C742.039745 526.745842 745.614154 519.860015 745.614154 512.130983z" p-id="6534" fill="#bfbfbf"></path></svg>