 <svg class="icon" viewBox="0 0 1024 1024" version="1.1" xmlns="http://www.w3.org/2000/svg" p-id="12821" height="128" width="128"><path d="M512 1024C229.2224 1024 0 794.7776 0 512S229.2224 0 512 0s512 229.2224 512 512-229.2224 512-512 512z m0-998.4C243.3792 25.6 25.6 243.3792 25.6 512s217.7792 486.4 486.4 486.4 486.4-217.7792 486.4-486.4S780.6208 25.6 512 25.6z" fill="" p-id="12822"></path><path d="M512 1024C229.2224 1024 0 794.7776 0 512S229.2224 0 512 0s512 229.2224 512 512-229.2224 512-512 512z m0-998.4C243.3792 25.6 25.6 243.3792 25.6 512s217.7792 486.4 486.4 486.4 486.4-217.7792 486.4-486.4S780.6208 25.6 512 25.6z" fill="" p-id="12823"></path><path d="M596.4032 521.984a158.1056 158.1056 0 0 0 73.1136-133.504C669.5168 301.184 598.9888 230.4 512 230.4c-87.0144 0-157.5424 70.784-157.5424 158.08a158.1056 158.1056 0 0 0 73.1136 133.504C327.7568 558.4128 256 657.536 256 773.8368a19.712 19.712 0 1 0 39.3728 0c0-125.2864 97.1776-227.2512 216.6272-227.2512 119.424 0 216.6016 101.9648 216.6016 227.2512a19.712 19.712 0 1 0 39.3728 0c0-116.3008-71.7568-215.424-171.5712-251.8528zM512 507.0592a118.3744 118.3744 0 0 1-118.1696-118.5536c0-65.4848 52.9152-118.5792 118.1696-118.5792 65.2288 0 118.144 53.0944 118.144 118.5792S577.2288 507.0592 512 507.0592z" fill="" p-id="12824"></path></svg>