<svg t="1551174339091" class="icon" viewBox="0 0 1024 1024" version="1.1" xmlns="http://www.w3.org/2000/svg" p-id="2057" height="200" width="200"><path d="M678.758927 731.426377a51.930909 51.930909 0 0 0 52.66233-51.930909V51.936029A51.930909 51.930909 0 0 0 678.758927 0.00512H51.930909A51.930909 51.930909 0 0 0 0 51.936029v627.559439a51.930909 51.930909 0 0 0 51.930909 51.930909h626.828018z" p-id="2058" fill="#8a8a8a"></path><path d="M971.32743 292.573623H804.563383v454.212601a57.782279 57.782279 0 0 1-57.782279 57.782279H292.568503v167.495468a51.930909 51.930909 0 0 0 52.66233 51.930909h626.828018a51.930909 51.930909 0 0 0 51.930909-51.930909V344.504532a51.930909 51.930909 0 0 0-52.66233-51.930909z" p-id="2059" fill="#8a8a8a"></path></svg>