<svg t="1550802995997" class="icon" viewBox="0 0 1024 1024" version="1.1" xmlns="http://www.w3.org/2000/svg" p-id="1603" height="200" width="200"><path d="M896 224H128c-35.2 0-64 28.8-64 64v448c0 35.2 28.8 64 64 64h768c35.2 0 64-28.8 64-64V288c0-35.2-28.8-64-64-64z m0 480c0 19.2-12.8 32-32 32H160c-19.2 0-32-12.8-32-32V320c0-19.2 12.8-32 32-32h704c19.2 0 32 12.8 32 32v384z" fill="#8a8a8a" p-id="1604"></path><path d="M224 352c-19.2 0-32 12.8-32 32v256c0 16 12.8 32 32 32s32-12.8 32-32V384c0-16-12.8-32-32-32z" fill="#8a8a8a" p-id="1605"></path></svg>