<svg t="1550218143013" class="icon" viewBox="0 0 1024 1024" version="1.1" xmlns="http://www.w3.org/2000/svg" p-id="11793" height="48" width="48"><path d="M617.244444 341.333333C617.244444 341.333333 617.244444 338.488889 617.244444 341.333333c-2.844444-5.688889-2.844444-5.688889-2.844444-5.688889l-42.666667-54.044444c0 0 0 0 0 0-5.688889-2.844444-14.222222-5.688889-19.911111 0l-45.511111 34.133333-45.511111-34.133333c-5.688889-5.688889-17.066667-2.844444-22.755556 2.844444l-39.822222 54.044444c0 0-2.844444 2.844444-2.844444 2.844444l0 2.844444c0 2.844444 0 2.844444 0 2.844444 0 2.844444 0 2.844444 0 2.844444l0 2.844444c0 0 0 0 0 0 0 0 0 2.844444 0 2.844444l96.711111 125.155556c2.844444 2.844444 2.844444 2.844444 5.688889 5.688889 0 0 2.844444 0 2.844444 0 2.844444 0 5.688889 0 8.533333 0 0 0 2.844444 0 2.844444 0 2.844444 0 2.844444-2.844444 2.844444-2.844444 0 0 0 0 2.844444-2.844444l96.711111-128c0 0 2.844444-2.844444 2.844444-2.844444l0-2.844444c0 0 0-2.844444 0-5.688889C617.244444 344.177778 617.244444 341.333333 617.244444 341.333333L617.244444 341.333333zM503.466667 429.511111l-56.888889-73.955556 19.911111-25.6 31.288889 22.755556c0 0 2.844444 0 2.844444 2.844444l2.844444 0c2.844444 0 5.688889 0 5.688889 0 0 0 2.844444 0 2.844444 0 0 0 0 0 2.844444-2.844444l31.288889-25.6 17.066667 22.755556L503.466667 429.511111 503.466667 429.511111zM497.777778 102.4 497.777778 102.4C497.777778 105.244444 497.777778 102.4 497.777778 102.4 497.777778 102.4 497.777778 102.4 497.777778 102.4L497.777778 102.4zM617.244444 341.333333C617.244444 341.333333 617.244444 338.488889 617.244444 341.333333c-2.844444-5.688889-2.844444-5.688889-2.844444-5.688889l-42.666667-54.044444c0 0 0 0 0 0-5.688889-2.844444-14.222222-5.688889-19.911111 0l-45.511111 34.133333-45.511111-34.133333c-5.688889-5.688889-17.066667-2.844444-22.755556 2.844444l-39.822222 54.044444c0 0-2.844444 2.844444-2.844444 2.844444l0 2.844444c0 2.844444 0 2.844444 0 2.844444 0 2.844444 0 2.844444 0 2.844444l0 2.844444c0 0 0 0 0 0 0 0 0 2.844444 0 2.844444l96.711111 125.155556c2.844444 2.844444 2.844444 2.844444 5.688889 5.688889 0 0 2.844444 0 2.844444 0 2.844444 0 5.688889 0 8.533333 0 0 0 2.844444 0 2.844444 0 2.844444 0 2.844444-2.844444 2.844444-2.844444 0 0 0 0 2.844444-2.844444l96.711111-128c0 0 2.844444-2.844444 2.844444-2.844444l0-2.844444c0 0 0-2.844444 0-5.688889C617.244444 344.177778 617.244444 341.333333 617.244444 341.333333L617.244444 341.333333zM503.466667 429.511111l-56.888889-73.955556 19.911111-25.6 31.288889 22.755556c0 0 2.844444 0 2.844444 2.844444l2.844444 0c2.844444 0 5.688889 0 5.688889 0 0 0 2.844444 0 2.844444 0 0 0 0 0 2.844444-2.844444l31.288889-25.6 17.066667 22.755556L503.466667 429.511111 503.466667 429.511111zM617.244444 341.333333C617.244444 341.333333 617.244444 338.488889 617.244444 341.333333c-2.844444-5.688889-2.844444-5.688889-2.844444-5.688889l-42.666667-54.044444c0 0 0 0 0 0-5.688889-2.844444-14.222222-5.688889-19.911111 0l-45.511111 34.133333-45.511111-34.133333c-5.688889-5.688889-17.066667-2.844444-22.755556 2.844444l-39.822222 54.044444c0 0-2.844444 2.844444-2.844444 2.844444l0 2.844444c0 2.844444 0 2.844444 0 2.844444 0 2.844444 0 2.844444 0 2.844444l0 2.844444c0 0 0 0 0 0 0 0 0 2.844444 0 2.844444l96.711111 125.155556c2.844444 2.844444 2.844444 2.844444 5.688889 5.688889 0 0 2.844444 0 2.844444 0 2.844444 0 5.688889 0 8.533333 0 0 0 2.844444 0 2.844444 0 2.844444 0 2.844444-2.844444 2.844444-2.844444 0 0 0 0 2.844444-2.844444l96.711111-128c0 0 2.844444-2.844444 2.844444-2.844444l0-2.844444c0 0 0-2.844444 0-5.688889C617.244444 344.177778 617.244444 341.333333 617.244444 341.333333L617.244444 341.333333zM503.466667 429.511111l-56.888889-73.955556 19.911111-25.6 31.288889 22.755556c0 0 2.844444 0 2.844444 2.844444l2.844444 0c2.844444 0 5.688889 0 5.688889 0 0 0 2.844444 0 2.844444 0 0 0 0 0 2.844444-2.844444l31.288889-25.6 17.066667 22.755556L503.466667 429.511111 503.466667 429.511111zM984.177778 420.977778 531.911111 110.933333l-8.533333-5.688889c-8.533333-5.688889-17.066667-5.688889-25.6-2.844444 0 0-2.844444 0-2.844444 2.844444 0 0-2.844444 0-2.844444 2.844444L39.822222 420.977778c-11.377778 8.533333-14.222222 22.755556-5.688889 34.133333 5.688889 5.688889 14.222222 11.377778 19.911111 11.377778 5.688889 0 11.377778 0 14.222222-5.688889L142.222222 409.6l0 486.4c0 14.222222 11.377778 25.6 25.6 25.6L853.333333 921.6c14.222222 0 25.6-11.377778 25.6-25.6L878.933333 409.6l76.8 51.2c5.688889 2.844444 8.533333 5.688889 14.222222 5.688889 8.533333 0 17.066667-2.844444 19.911111-11.377778C998.4 443.733333 995.555556 429.511111 984.177778 420.977778L984.177778 420.977778zM594.488889 867.555556l-179.2 0 0-253.155556 179.2 0 0 258.844444L594.488889 867.555556zM822.044444 372.622222l0 494.933333-176.355556 0 0-284.444444c0-14.222222-11.377778-25.6-25.6-25.6l-227.555556 0c-14.222222 0-25.6 11.377778-25.6 25.6l0 284.444444L199.111111 867.555556 199.111111 375.466667l0 0 310.044444-219.022222L822.044444 372.622222C822.044444 372.622222 822.044444 372.622222 822.044444 372.622222L822.044444 372.622222zM822.044444 372.622222" p-id="11794" fill="#707070"></path></svg>