<svg t="1550803217201" class="icon" viewBox="0 0 1024 1024" version="1.1" xmlns="http://www.w3.org/2000/svg" p-id="3502" height="200" width="200"><path d="M893.090118 161.585486H715.041579V90.562657c0-15.423809-12.491401-27.929544-27.929544-27.929544-15.437119 0-27.929544 12.505735-27.929543 27.929544v71.022829H390.473003V90.562657c0-15.423809-12.491401-27.929544-27.929544-27.929544s-27.929544 12.505735-27.929544 27.929544v71.022829H126.400691c-34.883773 0-63.277137 28.37903-63.277137 63.277137v647.36276c0 34.898107 28.393364 63.277137 63.277137 63.277137h766.689427c34.883773 0 63.277137-28.37903 63.277137-63.277137V224.862623c0-34.898107-28.39234-63.277137-63.277137-63.277137z m7.419073 710.639897a7.427264 7.427264 0 0 1-7.419073 7.419073H126.400691a7.427264 7.427264 0 0 1-7.419073-7.419073V224.862623a7.427264 7.427264 0 0 1 7.419073-7.419073h208.214248v64.695218c0 15.423809 12.491401 27.929544 27.929544 27.929544s27.929544-12.505735 27.929544-27.929544v-64.695218h268.709488v64.695218c0 15.423809 12.491401 27.929544 27.929544 27.929544 15.437119 0 27.929544-12.505735 27.929544-27.929544v-64.695218h178.048539a7.427264 7.427264 0 0 1 7.419073 7.419073v647.36276z" fill="#8a8a8a" p-id="3503"></path><path d="M288.497096 478.723727m-51.822932 0a51.822932 51.822932 0 1 0 103.645864 0 51.822932 51.822932 0 1 0-103.645864 0Z" fill="#8a8a8a" p-id="3504"></path><path d="M517.278129 478.723727m-51.822932 0a51.822932 51.822932 0 1 0 103.645864 0 51.822932 51.822932 0 1 0-103.645864 0Z" fill="#8a8a8a" p-id="3505"></path><path d="M746.060185 478.723727m-51.822932 0a51.822932 51.822932 0 1 0 103.645864 0 51.822932 51.822932 0 1 0-103.645864 0Z" fill="#8a8a8a" p-id="3506"></path><path d="M288.497096 680.997392m-51.822932 0a51.822932 51.822932 0 1 0 103.645864 0 51.822932 51.822932 0 1 0-103.645864 0Z" fill="#8a8a8a" p-id="3507"></path><path d="M517.278129 680.997392m-51.823956 0a51.823956 51.823956 0 1 0 103.647912 0 51.823956 51.823956 0 1 0-103.647912 0Z" fill="#8a8a8a" p-id="3508"></path><path d="M746.060185 680.997392m-51.823955 0a51.823956 51.823956 0 1 0 103.647911 0 51.823956 51.823956 0 1 0-103.647911 0Z" fill="#8a8a8a" p-id="3509"></path></svg>