<svg class="icon" viewBox="0 0 1024 1024" version="1.1" xmlns="http://www.w3.org/2000/svg" p-id="3158" height="128" width="128"><path d="M740.6 183.3v71.5h-57.2v-71.5c0-3.8-1.4-7.3-4.2-10-2.8-2.8-6.2-4.2-10-4.2H183.4c-3.8 0-7.3 1.4-10 4.2-2.7 2.8-4.2 6.2-4.2 10v485.9c0 3.8 1.4 7.3 4.2 10 2.8 2.8 6.2 4.2 10 4.2h71.5v57.2h-71.5c-19.6 0-36.5-7-50.4-20.9-14-14-21-30.9-21-50.5V183.3c0-19.6 7-36.5 20.9-50.4 13.9-13.9 30.8-20.9 50.4-20.9h485.9c19.6 0 36.5 7.1 50.4 20.9 14 14 21 30.8 21 50.4z m171.5 171.5v485.9c0 19.6-7.1 36.5-20.9 50.4-14 14-30.8 20.9-50.4 20.9H354.9c-19.6 0-36.5-7.1-50.4-20.9-14-14-20.9-30.8-20.9-50.4V354.8c0-19.6 7-36.5 20.9-50.4 13.9-13.9 30.8-20.9 50.4-20.9h485.9c19.6 0 36.5 7.1 50.4 20.9 13.9 14 20.9 30.8 20.9 50.4z" p-id="3159"></path></svg>